<?xml version="1.0" ?><svg height="128" id="svg8" version="1.1" viewBox="0 0 33.866666 33.866668" width="128" xmlns="http://www.w3.org/2000/svg" xmlns:svg="http://www.w3.org/2000/svg"><defs id="defs2"/><g id="layer1" transform="translate(0,-263.13332)"><g id="g5344" transform="matrix(0.35502644,0,0,0.35502644,-233.41538,23.292677)"><g id="g5469" style="stroke:none" transform="matrix(0.39807545,0,0,0.39807246,250.21406,469.90548)"><ellipse cx="1142.8513" cy="636.43579" id="ellipse5441" rx="117.83234" ry="117.83775" style="display:inline;fill:#ffaaaa;fill-opacity:1;fill-rule:evenodd;stroke:none;stroke-width:8.90538883;stroke-linecap:round;stroke-linejoin:round;stroke-miterlimit:4;stroke-dasharray:none;stroke-dashoffset:6.5999999;stroke-opacity:1"/><path d="m 1180.6628,641.32706 c -11.8248,0.18906 -20.6809,12.63251 -29.6598,13.13287 -13.607,0.75827 -28.1887,-15.28911 -42.2866,-11.47388 -39.9724,10.81751 -39.807,56.86626 -29.1737,87.52633 0.7896,2.2768 1.6811,4.54003 2.6504,6.78105 16.0466,9.69603 34.1411,15.40315 52.7692,16.69742 2.6204,0.18206 5.2515,0.2768 7.8888,0.28304 27.353,-0.0334 53.8423,-9.58232 74.9257,-27.00937 0.9362,-2.52443 1.5248,-4.34198 1.7363,-4.94672 12.9651,-37.07874 -0.4666,-79.02885 -37.6968,-80.97019 -0.3877,-0.0202 -0.7721,-0.0266 -1.1535,-0.0206 z" id="path5443" style="display:inline;fill:#ff5555;fill-opacity:1;fill-rule:evenodd;stroke:none;stroke-width:8.90538883;stroke-linecap:round;stroke-linejoin:round;stroke-miterlimit:4;stroke-dasharray:none;stroke-dashoffset:6.5999999;stroke-opacity:1"/><path d="m 1153.2974,646.13271 c -4.9394,-31.78699 -20.8616,-37.62798 -21.6348,-37.53476 l -4.4253,1.92592 c 12.9882,10.35895 19.9202,22.44577 18.8485,35.77274 z" id="path5445" style="fill:#aa4400;fill-rule:evenodd;stroke:none;stroke-width:8.90538883;stroke-linecap:round;stroke-linejoin:round;stroke-miterlimit:4;stroke-dasharray:none;stroke-dashoffset:0;stroke-opacity:1"/><path d="m 1154.9364,630.80134 c 0,0 4.5852,-2.75286 7.0476,-3.76987 7.0132,-2.89652 16.6781,-0.95665 21.7987,-6.55629 6.5873,-7.20349 5.9004,-28.68376 5.9004,-28.68376 0,0 -5.8152,5.6495 -9.3423,7.53973 -7.219,3.86874 -18.328,0.97463 -23.4377,7.37583 -5.027,6.29767 -6.5567,16.28144 -1.9667,24.09436 z" id="path5447" style="fill:#e5ff80;fill-rule:evenodd;stroke:none;stroke-width:8.90538883;stroke-linecap:round;stroke-linejoin:round;stroke-miterlimit:4;stroke-dasharray:none;stroke-dashoffset:0;stroke-opacity:1"/><path d="m 1199.9224,667.17309 c 12.3197,15.11198 9.6254,36.9911 7.2167,53.06634" id="path5449" style="opacity:1;fill:none;fill-opacity:1;fill-rule:evenodd;stroke:none;stroke-width:5.93692541;stroke-linecap:round;stroke-linejoin:round;stroke-miterlimit:4;stroke-dasharray:none;stroke-dashoffset:0;stroke-opacity:1"/><path d="m 1244.0318,625.65246 c 3.4914,12.7766 1.4504,23.34482 -1.2892,34.00924" id="path5455" style="opacity:1;fill:none;fill-opacity:0;fill-rule:evenodd;stroke:none;stroke-width:5.93692541;stroke-linecap:round;stroke-linejoin:round;stroke-miterlimit:4;stroke-dasharray:none;stroke-dashoffset:0;stroke-opacity:1"/></g><path d="m 721.52879,732.42727 c 3.17839,1.37339 5.87663,3.83067 7.5405,6.8671 1.31673,2.40293 1.98876,5.15528 1.92761,7.89465" id="path6422" style="fill:none;fill-rule:evenodd;stroke:#ffffff;stroke-width:3.375;stroke-linecap:round;stroke-linejoin:round;stroke-miterlimit:4;stroke-dasharray:none;stroke-opacity:1"/></g></g></svg>